<?xml version="1.0" encoding="iso-8859-1"?>
<!-- Uploaded to: SVG Repo, www.svgrepo.com, Generator: SVG Repo Mixer Tools -->
<!DOCTYPE svg PUBLIC "-//W3C//DTD SVG 1.1//EN" "http://www.w3.org/Graphics/SVG/1.1/DTD/svg11.dtd">
<svg fill="#000000" version="1.1" id="Capa_1" xmlns="http://www.w3.org/2000/svg" xmlns:xlink="http://www.w3.org/1999/xlink" 
	 width="800px" height="800px" viewBox="0 0 750.002 750.002"
	 xml:space="preserve">
<g>
	<g>
		<path d="M424.205,239.341h-1.227h-95.957h-1.227c-103.444,44.353-180.907,220.456-180.907,359.245
			c0,160.059,103.025,151.332,230.112,151.332c127.087,0,230.113,8.727,230.113-151.332
			C605.113,459.797,527.65,283.694,424.205,239.341z M204.053,541.582c4.286-4.48,10.101-8.246,13.797-13.176
			c11.122-11.527,15.001-27.162,8.857-42.215c-5.03-12.324-13.539-22.139-2.371-33.672c2.484-2.566,5.181-4.936,7.785-7.377
			c6.042-5.664,12.005-12.162,15.393-19.801c4.971-11.207,5.098-22.922,0.223-32.822c11.217-19.436,24.659-36.51,40.563-49.329
			v328.768c0,0-59.894,4.41-81.27-48.184c3.379-10.932,9.229-21.729,9.482-33.582c0.277-13.027-7.882-24.451-12.418-36.307
			C202.555,549.865,201.342,544.928,204.053,541.582z"/>
		<path d="M594.039,72.146V21.947C594.039,9.826,584.213,0,572.092,0h-27.594v94.092h27.594
			C584.213,94.093,594.039,84.267,594.039,72.146z"/>
		<path d="M480.365,135.154c-7.314,7.471-13.764,17.295-19.213,29.307c-1.965,4.329-3.676,8.683-5.172,12.944
			c-0.447,2.081-0.604,3.295-0.604,3.295c10.602,0,43.732,11.927,64.938,58.311c21.203,46.384,68.25,36.444,38.432,6.626
			c-29.818-29.818-45.059-125.898-45.059-125.898C499.41,122.301,488.576,128.102,480.365,135.154z"/>
		<path d="M368.77,0.001c-27.324,0-84.911,11.64-135.673,78.554c-4.491,5.92-1.399,14.534,5.844,16.193
			c25.882,5.927,74.168,29.466,74.168,122.593H424.43c0,0,10.602-121.922,98.066-121.922v-1.325V0.001h-0.604
			C512.668,0.001,396.76,0.001,368.77,0.001z"/>
	</g>
</g>
</svg>